<?xml version="1.0" encoding="utf-8"?>
<!-- Generator: Adobe Illustrator 19.2.1, SVG Export Plug-In . SVG Version: 6.00 Build 0)  -->
<svg version="1.1" id="Capa_1" xmlns="http://www.w3.org/2000/svg" xmlns:xlink="http://www.w3.org/1999/xlink" x="0px" y="0px"
	 viewBox="0 0 848 176" style="enable-background:new 0 0 848 176;" xml:space="preserve">
<style type="text/css">
	.st0{fill:#FF0000;}
	.st1{fill:#FFFFFF;}
	.st2{fill:#040004;}
</style>
<g>
	<path class="st0" d="M185.3,168.6H11.9c-4.2,0-7.6-3.4-7.6-7.6V13.6C4.3,9.4,7.7,6,11.9,6h173.4c4.2,0,7.6,3.4,7.6,7.6V161
		C192.9,165.2,189.5,168.6,185.3,168.6z"/>
	<path class="st1" d="M45.7,46.4c-0.2-4.3,0.5-8.6,1.9-12.7c4.5-0.1,8.9-0.1,13.4,0c2.4,6.8,1.4,14.1,1.8,21.2
		c17.4-0.3,34.8-0.1,52.2-0.1c10.8,0.1,22.7,1.4,31,9c7.6,7.8,5.1,19.4,5.6,29.2c-0.2,9.5,1.6,21.2-6.5,28.2
		c-10,8.3-23.9,8.5-36.3,8.7c-15.5-0.3-31.7,1.6-46.3-4.5c-7.9-2.9-16.1-9-16.5-18.1C45.5,86.9,46,66.7,45.7,46.4z"/>
	<path class="st0" d="M62.7,68.1c17.4,0.4,34.8-0.1,52.1,0.2c6.4,0.6,13.8,0.6,18.7,5.4c3.2,7.2,1.2,15.6,1.8,23.3
		c-0.2,5.7,1,13.8-5.2,16.8c-7.3,3.2-15.6,1.9-23.4,2.2c-14.7-0.4-30.8,2-43.8-6.4C62,95.7,61.4,81.8,62.7,68.1z"/>
	<path class="st2" d="M628.2,81.7c3.5-1.7,8.7-1.2,10.5,2.7c1.1,6.5-7.5,7.6-11.7,4.8C625.4,87.1,625.3,82.8,628.2,81.7z"/>
	<path class="st2" d="M394.6,94.9c6.7-2.9,14.2-2.7,21.4-2.6c0.2,1.9,0.5,5.6,0.7,7.4c-6.4,1.5-15.8-1.6-19.5,5.2
		c-0.7,10.7,0.1,21.4-0.4,32.1c-3,0.2-6,0.2-9,0.2c-0.2-10.8-0.3-21.7-0.1-32.5C387.4,100.2,390.7,96.5,394.6,94.9z"/>
	<path class="st2" d="M418.9,100.2c3.5-6.8,12.2-7.9,19-8.1c14.2,0.1,28.3-0.3,42.5,0.2c2.9,1.6,2.6,5.3,0.7,7.6
		c-15.1,1-30.3-0.2-45.5,0.6c-3.1,0.4-7.7,0.9-8.1,4.9c-0.3,7.4-1,15,1.3,22.1c16.8,3.9,34.2,0.8,51.2,2.1c3.9,0.4,3.9,7.1-0.1,7.6
		c-12,0.8-24.1,0.1-36.1,0.3c-7.6-0.2-16.3,0.4-22.5-4.8c-4.1-3.3-3.2-9.1-3.4-13.7C418.2,112.8,417.3,106.3,418.9,100.2z"/>
	<path class="st2" d="M560.9,96.7c6.2-5,14.7-4.5,22.2-4.6c12.2,0.3,24.4-0.3,36.5,0.3c3.3,1.7,1.7,5.2,1,7.9
		c-14.5,0.2-29.1-0.1-43.6,0.1c-3.7,0.4-9.4,0.3-10.2,5c-0.3,7.4-0.9,15,1.2,22.1c16.8,3.9,34.2,0.8,51.2,2.2c3.8,0.3,4,7.2,0,7.6
		c-12.1,0.8-24.2,0.1-36.3,0.3c-7.4-0.2-15.7,0.3-21.9-4.4c-5.5-4.3-3.3-12.1-3.8-18C557.8,109,555.5,101.2,560.9,96.7z"/>
	<path class="st2" d="M627.5,106.9c-0.5-5.1-0.3-10.4,1.2-15.3c2.8,0.1,5.5,0.6,8.1,1.6c0.7,14.6,0.2,29.2,0.2,43.7
		c-3,0.2-5.9,0.4-8.9,0.5C626.3,127.3,628.5,117,627.5,106.9z"/>
	<path class="st2" d="M644.7,100.6c3.4-7,12.3-8,19.2-8.4c10.1,0.1,20.3-0.8,30.3,0.9c5,0.9,11.3,3.8,11.6,9.6
		c0.4,11.4,0.2,22.9,0,34.4c-3.1,0.1-6.1,0-9.2-0.2c-0.4-10.8,0.3-21.7-0.3-32.5c-1-4.5-6.7-3.8-10.2-4.2c-10.6,0.2-21.3-1-31.7,1.4
		c-1.8,10.8-0.6,21.7-0.5,32.5c-0.6,4.9-6.4,2.8-9.7,2.7C644.3,124.8,643.4,112.7,644.7,100.6z"/>
	<path class="st2" d="M793.8,93.9c7.6-1,17.5-4.3,24.1,0.4c0,1.2,0,3.7,0,4.9c-7.3,2.2-15.2-0.1-22.5,2.4c0.1,2.3,0.2,4.5,0.3,6.8
		c12.6,4.1,26.3-0.3,39,3.2c10.7,2.5,11.2,20.2,1.1,23.7c-7.2,2.8-15,2-22.5,2.1c-8.2-0.2-16.4,0.4-24.5-0.3
		c-4.2,0.4-3.2-5.3-1.9-7.5c14.1-1.5,28.5,1,42.5-1.3c4.4-0.2,2.9-5.4,3.4-8.3c-13.3-4.1-27.9,1.3-40.8-4.3
		C782.3,112.2,783.4,95.7,793.8,93.9z"/>
	<path class="st2" d="M308,104.7c0-7-7.4-10.6-13.4-11.4c-13.1-1.7-26.5-0.5-39.7-0.8c0-4.2,0-8.3-0.2-12.5c-3.1,0-6.2,0-9.3,0.1
		c-0.4,14.4-0.2,28.7-0.2,43.1c-0.4,5.1,3.8,9,8.1,10.8c10.3,4.7,22,3.2,33.1,3.3c7.6-0.3,17.5-1.3,21-9.2
		C308.8,120.5,308.1,112.6,308,104.7z M298.2,125.1c-1.1,4.2-6.4,3.8-9.7,4.2c-11.2-0.1-23.1,1.7-33.5-3.6c-0.1-8.4-0.1-16.8,0-25.2
		c11.2,0.3,22.4-0.3,33.6,0.3c3.8,0,7.2,1.6,10.3,3.7C298.5,111.4,299.6,118.4,298.2,125.1z"/>
	<path class="st2" d="M549.7,100.7c-3.8-7.6-13.7-8.4-21.2-8.5c-9.8,0.3-19.9-1.2-29.4,2c-6.3,2-11.7,7.7-10.5,14.7
		c0.8,8.1-3.1,19.2,5.4,24.4c11,6.3,24.3,3.9,36.4,4.2c7.1-0.4,17-2.1,19.6-9.9C550.7,118.7,551.2,109.5,549.7,100.7z M528.5,129.3
		c-9.7,0.2-19.6,0.7-29.1-2c-2-8.1-1.9-16.6-0.1-24.6c10.1-3.5,20.8-2.3,31.2-2.3c3.8,0.3,9.7,0.5,10.3,5.4c0.4,6.2,0,12.4,0.4,18.5
		C538.4,128.4,533.2,129.2,528.5,129.3z"/>
	<path class="st2" d="M380.7,104.6c0.3-5.1-4.2-8.7-8.6-10.2c-7.6-2.4-15.7-2.4-23.6-2.1c0,1.8-0.1,5.5-0.2,7.3
		c7.8,1.6,18.1-2,23.6,5.5c-12.4,0.5-24.8,0-37.2,0.2c-5.3,0.1-10.9,1.1-15.1,4.4c-5.9,4.1-4.8,12.4-3.7,18.4c4.4,8,14.8,9.4,23,9.3
		c10.2-0.3,20.4,0.8,30.5-0.9c4.8-0.9,10.4-3.8,11.1-9.2C381.1,119.8,380.9,112.2,380.7,104.6z M370,128.1
		c-14.7,1.7-30.1,2.6-44.6-0.8c-0.5-3.7-0.6-7.3-0.6-11c3.7-1.6,7.6-3.1,11.8-2.9c11.6-0.1,23.3,0,34.9,0
		C371.8,118.4,371.5,123.4,370,128.1z"/>
	<path class="st2" d="M780.4,104.5c0.2-5.1-4.3-8.7-8.6-10.1c-7.7-2.4-15.9-2.4-23.8-2c0.7,2.4-1.1,7.8,3,7.7
		c6.9,0.9,16.1-1.9,20.5,5.1c-13.7,0.5-27.4-0.3-41,0.5c-8,0.4-17.3,6.2-15.6,15.4c-1.8,8.4,6.1,14.4,13.5,15.6
		c10.7,1.7,21.5,0.6,32.3,0.9c6.8-0.2,15.9-1,19.1-8.1C781.2,121.2,780.4,112.8,780.4,104.5z M769.7,128.1
		c-14.7,1.8-30.1,2.7-44.6-0.8c-0.4-3.7-0.5-7.3-0.5-11c7.4-3.8,15.9-2.7,24-2.8c7.5,0,15.1,0,22.7,0
		C771.4,118.4,771.1,123.3,769.7,128.1z"/>
</g>
</svg>
