<?xml version="1.0" encoding="UTF-8" ?>
<!DOCTYPE svg PUBLIC "-//W3C//DTD SVG 1.1//EN" "http://www.w3.org/Graphics/SVG/1.1/DTD/svg11.dtd">
<svg width="424pt" height="88pt" viewBox="0 0 424 88" version="1.1" xmlns="http://www.w3.org/2000/svg">
<path fill="#ffffff" d=" M 0.00 0.00 L 424.00 0.00 L 424.00 88.00 L 0.00 88.00 L 0.00 0.00 Z" />
<path fill="#ff0000" d=" M 1.25 6.00 C 32.42 6.00 63.58 6.00 94.75 6.00 C 94.71 32.85 94.82 59.71 94.70 86.56 C 63.55 86.42 32.40 86.54 1.25 86.49 C 1.25 59.66 1.26 32.83 1.25 6.00 Z" />
<path fill="#ffffff" d=" M 21.77 26.00 C 21.65 23.86 22.04 21.75 22.69 19.72 C 24.90 19.66 27.11 19.66 29.32 19.72 C 30.52 23.10 30.00 26.71 30.21 30.21 C 38.83 30.05 47.45 30.14 56.07 30.15 C 61.42 30.22 67.32 30.84 71.45 34.60 C 75.20 38.45 73.99 44.23 74.20 49.07 C 74.10 53.79 75.01 59.57 71.00 63.02 C 66.05 67.15 59.14 67.23 53.02 67.31 C 45.34 67.16 37.34 68.10 30.06 65.10 C 26.16 63.66 22.06 60.66 21.88 56.13 C 21.67 46.09 21.91 36.05 21.77 26.00 Z" />
<path fill="#ff0000" d=" M 30.22 36.74 C 38.83 36.95 47.44 36.70 56.05 36.85 C 59.20 37.15 62.88 37.13 65.29 39.51 C 66.89 43.09 65.88 47.22 66.18 51.04 C 66.06 53.87 66.70 57.86 63.60 59.36 C 59.96 60.96 55.85 60.28 51.99 60.45 C 44.72 60.27 36.71 61.46 30.28 57.26 C 29.86 50.44 29.55 43.56 30.22 36.74 Z" />
<path fill="#040004" d=" M 120.72 42.73 C 122.26 42.69 123.79 42.68 125.33 42.69 C 125.40 44.75 125.42 46.81 125.41 48.87 C 131.96 49.00 138.57 48.41 145.08 49.27 C 148.05 49.68 151.73 51.47 151.73 54.92 C 151.78 58.80 152.12 62.74 151.46 66.57 C 149.70 70.48 144.80 70.96 141.05 71.12 C 135.59 71.06 129.79 71.82 124.67 69.47 C 122.53 68.54 120.45 66.63 120.64 64.10 C 120.61 56.97 120.54 49.85 120.72 42.73 Z" />
<path fill="#040004" d=" M 310.35 43.52 C 312.07 42.69 314.66 42.92 315.54 44.86 C 316.09 48.10 311.80 48.63 309.74 47.24 C 308.97 46.16 308.92 44.06 310.35 43.52 Z" />
<path fill="#040004" d=" M 171.80 48.78 C 175.70 48.61 179.71 48.61 183.48 49.80 C 185.65 50.53 187.86 52.31 187.73 54.83 C 187.84 58.60 187.95 62.39 187.64 66.14 C 187.29 68.81 184.53 70.27 182.14 70.70 C 177.14 71.54 172.05 71.01 167.01 71.16 C 162.91 71.20 157.78 70.50 155.60 66.54 C 155.05 63.52 154.53 59.43 157.44 57.40 C 159.55 55.76 162.31 55.28 164.93 55.23 C 171.08 55.10 177.23 55.34 183.38 55.11 C 180.65 51.43 175.57 53.18 171.70 52.41 C 171.73 51.50 171.78 49.69 171.80 48.78 Z" />
<path fill="#040004" d=" M 194.65 50.02 C 197.97 48.60 201.68 48.67 205.23 48.72 C 205.32 49.64 205.50 51.47 205.59 52.39 C 202.43 53.15 197.77 51.58 195.91 54.97 C 195.58 60.26 195.94 65.57 195.73 70.87 C 194.24 70.96 192.74 70.99 191.25 70.99 C 191.13 65.63 191.08 60.25 191.21 54.89 C 191.07 52.67 192.69 50.81 194.65 50.02 Z" />
<path fill="#040004" d=" M 206.66 52.68 C 208.39 49.29 212.68 48.78 216.08 48.68 C 223.09 48.73 230.11 48.51 237.11 48.79 C 238.56 49.59 238.41 51.41 237.47 52.54 C 229.98 53.04 222.45 52.42 214.95 52.82 C 213.39 53.01 211.16 53.27 210.94 55.23 C 210.80 58.88 210.45 62.66 211.58 66.20 C 219.90 68.11 228.51 66.58 236.95 67.25 C 238.90 67.45 238.86 70.77 236.91 71.00 C 230.96 71.38 224.99 71.03 219.04 71.16 C 215.27 71.04 210.98 71.34 207.88 68.80 C 205.85 67.18 206.30 64.29 206.20 62.00 C 206.33 58.91 205.85 55.71 206.66 52.68 Z" />
<path fill="#040004" d=" M 246.40 49.65 C 251.09 48.08 256.11 48.81 260.96 48.67 C 264.67 48.74 269.55 49.13 271.44 52.89 C 272.21 57.25 271.97 61.81 271.63 66.21 C 270.38 70.08 265.47 70.92 261.94 71.10 C 255.93 70.96 249.37 72.13 243.90 69.01 C 239.69 66.47 241.63 60.95 241.21 56.94 C 240.58 53.45 243.28 50.62 246.40 49.65 Z" />
<path fill="#040004" d=" M 276.99 50.95 C 280.05 48.45 284.29 48.70 288.01 48.65 C 294.04 48.78 300.09 48.48 306.11 48.79 C 307.76 49.62 306.93 51.36 306.61 52.69 C 299.41 52.77 292.21 52.63 285.01 52.74 C 283.19 52.93 280.33 52.88 279.94 55.21 C 279.78 58.86 279.47 62.63 280.55 66.18 C 288.86 68.13 297.48 66.57 305.91 67.25 C 307.80 67.38 307.91 70.80 305.92 71.00 C 299.94 71.38 293.93 71.03 287.94 71.16 C 284.28 71.04 280.14 71.31 277.07 68.96 C 274.37 66.81 275.45 62.99 275.19 60.02 C 275.46 57.01 274.35 53.18 276.99 50.95 Z" />
<path fill="#040004" d=" M 309.98 55.97 C 309.74 53.42 309.84 50.84 310.58 48.38 C 311.97 48.43 313.31 48.70 314.59 49.19 C 314.93 56.40 314.69 63.64 314.68 70.85 C 313.21 70.95 311.75 71.03 310.29 71.09 C 309.39 66.07 310.51 61.01 309.98 55.97 Z" />
<path fill="#040004" d=" M 318.50 52.88 C 320.16 49.40 324.58 48.90 328.00 48.71 C 333.00 48.74 338.07 48.30 343.02 49.16 C 345.50 49.60 348.62 51.06 348.78 53.93 C 348.98 59.60 348.86 65.28 348.79 70.96 C 347.27 70.99 345.75 70.95 344.24 70.87 C 344.02 65.51 344.37 60.13 344.07 54.78 C 343.55 52.56 340.75 52.90 339.02 52.72 C 333.79 52.84 328.47 52.21 323.33 53.43 C 322.45 58.76 323.01 64.16 323.07 69.52 C 322.77 71.95 319.91 70.91 318.28 70.85 C 318.34 64.87 317.88 58.84 318.50 52.88 Z" />
<path fill="#040004" d=" M 369.64 48.80 C 373.59 48.60 377.64 48.60 381.45 49.79 C 383.62 50.52 385.85 52.28 385.73 54.81 C 385.76 58.90 386.16 63.07 385.40 67.11 C 383.80 70.62 379.32 71.03 375.94 71.14 C 370.61 71.01 365.22 71.57 359.94 70.71 C 356.24 70.11 352.36 67.17 353.23 62.99 C 352.40 58.44 357.00 55.55 360.97 55.36 C 367.74 54.96 374.53 55.40 381.30 55.13 C 379.12 51.67 374.52 53.03 371.12 52.60 C 369.08 52.65 370.00 50.00 369.64 48.80 Z" />
<path fill="#040004" d=" M 392.38 49.56 C 396.16 49.04 401.06 47.41 404.30 49.77 C 404.30 50.38 404.29 51.61 404.28 52.22 C 400.68 53.30 396.76 52.16 393.14 53.39 C 393.17 54.51 393.22 55.63 393.27 56.75 C 399.53 58.80 406.28 56.62 412.59 58.35 C 417.89 59.57 418.15 68.34 413.14 70.10 C 409.59 71.48 405.70 71.10 401.98 71.16 C 397.92 71.05 393.86 71.36 389.82 71.02 C 387.75 71.22 388.23 68.41 388.90 67.32 C 395.89 66.60 403.01 67.83 409.95 66.68 C 412.11 66.56 411.38 64.01 411.65 62.56 C 405.08 60.52 397.84 63.19 391.42 60.44 C 386.70 58.59 387.22 50.45 392.38 49.56 Z" />
<path fill="#ffffff" d=" M 125.46 65.30 C 125.42 61.14 125.42 56.98 125.46 52.82 C 131.01 52.98 136.56 52.69 142.11 52.96 C 143.99 52.96 145.70 53.76 147.21 54.79 C 147.02 58.19 147.55 61.66 146.88 65.00 C 146.32 67.07 143.73 66.86 142.05 67.08 C 136.51 67.04 130.60 67.91 125.46 65.30 Z" />
<path fill="#ffffff" d=" M 246.52 53.89 C 251.50 52.18 256.82 52.73 261.99 52.76 C 263.86 52.92 266.79 53.01 267.09 55.43 C 267.29 58.48 267.07 61.55 267.27 64.60 C 265.85 66.64 263.28 67.01 260.98 67.10 C 256.16 67.19 251.25 67.45 246.56 66.10 C 245.55 62.10 245.61 57.90 246.52 53.89 Z" />
<path fill="#ffffff" d=" M 160.10 60.65 C 161.95 59.88 163.88 59.13 165.94 59.23 C 171.70 59.19 177.47 59.24 183.23 59.23 C 183.31 61.69 183.18 64.15 182.46 66.51 C 175.19 67.37 167.57 67.82 160.39 66.10 C 160.13 64.29 160.08 62.47 160.10 60.65 Z" />
<path fill="#ffffff" d=" M 358.11 60.62 C 361.80 58.72 366.01 59.27 370.01 59.22 C 373.75 59.24 377.49 59.22 381.24 59.24 C 381.31 61.68 381.16 64.13 380.47 66.50 C 373.19 67.38 365.55 67.82 358.36 66.09 C 358.18 64.27 358.10 62.45 358.11 60.62 Z" />
</svg>
