<?xml version="1.0" encoding="utf-8"?>
<!-- Generator: Adobe Illustrator 16.0.0, SVG Export Plug-In . SVG Version: 6.00 Build 0)  -->
<!DOCTYPE svg PUBLIC "-//W3C//DTD SVG 1.1//EN" "http://www.w3.org/Graphics/SVG/1.1/DTD/svg11.dtd">
<svg version="1.1" id="Layer_1" xmlns="http://www.w3.org/2000/svg" xmlns:xlink="http://www.w3.org/1999/xlink" x="0px" y="0px"
	 width="209.861px" height="60.863px" viewBox="0 0 209.861 60.863" enable-background="new 0 0 209.861 60.863"
	 xml:space="preserve">
<g>
	<path fill-rule="evenodd" clip-rule="evenodd" fill="#007A9F" d="M0,22.97h11.608v4.954c7.984-10.913,20.543-6.677,26.534,0.224
		c6.874-12.283,24.442-7.833,24.596,2.571h0.003v0.232c0,0.015,0.001,0.029,0.001,0.045h-0.001v28.781H51.133V34.775
		c-1.801-5.109-11.74-5.003-13.543-0.189v25.191H25.981V34.179c-3.989-5.115-11.592-3.37-14.373,1.291v24.308H0V22.97L0,22.97z
		 M189.436,21.809c11.25,0,20.426,8.771,20.426,19.528c0,0.623-0.033,1.237-0.094,1.847h-5.44h-4.879h-19.233
		c0.771,5.676,4.793,10.027,9.616,10.027c3.255,0,6.144-1.981,7.916-5.014h10.806c-2.915,7.388-10.391,12.666-19.117,12.666
		c-11.25,0-20.426-8.771-20.426-19.526C169.01,30.58,178.186,21.809,189.436,21.809L189.436,21.809z M198.831,36.586
		c-1.475-4.333-4.956-7.389-9-7.389c-4.043,0-7.524,3.056-8.999,7.389H198.831L198.831,36.586z M119.68,0h11.608v25.752
		c3.424-2.475,7.683-3.944,12.289-3.944c11.25,0,20.426,8.771,20.426,19.528c0,10.755-9.176,19.526-20.426,19.526
		c-4.606,0-8.865-1.473-12.289-3.948v2.862H119.68V0L119.68,0z M131.288,38.508v5.653c1.232,3.407,4.627,5.869,8.6,5.869
		c5.006,0,9.093-3.907,9.093-8.693c0-4.788-4.087-8.695-9.093-8.695C135.915,32.642,132.521,35.1,131.288,38.508L131.288,38.508z
		 M101.161,22.97h11.608v36.808h-11.608v-3.143c-3.485,2.645-7.889,4.229-12.667,4.229c-11.25,0-20.426-8.771-20.426-19.526
		c0-10.757,9.176-19.528,20.426-19.528c4.778,0,9.181,1.581,12.667,4.225V22.97L101.161,22.97z M91.13,32.642
		c5.006,0,9.092,3.907,9.092,8.695c0,4.786-4.086,8.693-9.092,8.693c-5.006,0-9.093-3.907-9.093-8.693
		C82.037,36.549,86.124,32.642,91.13,32.642L91.13,32.642z"/>
</g>
</svg>
